<?xml version="1.0" standalone="no"?>
<!DOCTYPE svg PUBLIC "-//W3C//DTD SVG 20010904//EN"
 "http://www.w3.org/TR/2001/REC-SVG-20010904/DTD/svg10.dtd">
<svg version="1.0" xmlns="http://www.w3.org/2000/svg"
 width="5000.000000pt" height="5000.000000pt" viewBox="0 0 5000.000000 5000.000000"
 preserveAspectRatio="xMidYMid meet">

<g transform="translate(0.000000,5000.000000) scale(0.100000,-0.100000)"
fill="#000000" stroke="none">
<path d="M12566 30370 c-1160 -76 -2221 -496 -3118 -1235 -163 -134 -549 -518
-680 -675 -649 -783 -1051 -1670 -1202 -2650 -45 -295 -59 -490 -60 -820 0
-317 14 -510 55 -790 205 -1400 958 -2665 2094 -3520 132 -99 413 -290 426
-290 11 0 14 23 53 400 55 522 68 709 81 1143 7 200 6 209 -12 204 -44 -13
-297 -29 -388 -25 -251 11 -321 130 -286 484 48 469 200 763 495 958 307 203
790 330 1130 296 450 -44 742 -286 884 -732 118 -368 29 -586 -278 -687 -36
-12 -144 -39 -239 -60 -95 -22 -175 -41 -176 -43 -5 -5 69 -235 138 -428 94
-265 169 -460 365 -950 104 -261 195 -492 202 -513 7 -21 13 -37 15 -35 2 2
-1 62 -7 133 -6 74 -8 298 -5 520 6 420 17 580 87 1300 63 643 68 697 85 915
22 291 35 734 24 860 -17 192 -42 312 -179 860 -99 392 -150 638 -175 835 -19
145 -24 382 -12 523 l8 92 -158 0 c-240 -1 -611 -18 -758 -36 -192 -24 -233
-14 -273 61 -21 39 -19 182 3 290 61 299 226 612 438 832 251 260 551 409 924
458 706 93 1471 -260 1866 -860 111 -169 191 -365 222 -543 18 -101 9 -151
-35 -192 -61 -57 -100 -59 -779 -35 -238 9 -436 14 -438 11 -3 -3 -8 -54 -10
-113 -10 -200 35 -451 134 -758 65 -198 196 -565 201 -561 2 2 9 33 17 69 30
144 119 271 337 482 324 315 537 416 908 432 410 17 1097 -125 1529 -316 378
-167 679 -438 835 -750 118 -236 196 -558 196 -811 0 -171 -32 -266 -111 -334
-76 -65 -127 -77 -364 -87 -313 -13 -639 10 -965 70 -69 13 -107 16 -111 9
-21 -33 -84 -510 -111 -843 -20 -239 -17 -1172 5 -1670 10 -220 19 -538 20
-707 1 -170 3 -308 4 -308 1 0 62 34 134 76 1432 823 2388 2191 2659 3809 54
324 65 464 65 880 0 418 -10 552 -66 890 -190 1135 -740 2178 -1571 2980 -886
854 -2007 1370 -3238 1490 -187 18 -656 27 -834 15z m815 -447 c53 -31 73
-106 45 -162 -48 -92 -194 -83 -226 15 -17 52 -5 97 36 133 41 36 98 42 145
14z m-2404 -482 c131 -60 132 -256 1 -320 -74 -35 -146 -25 -201 27 -42 40
-57 75 -57 134 0 135 131 216 257 159z m1673 -406 c59 -31 82 -130 43 -183
-50 -70 -140 -77 -200 -17 -28 28 -33 40 -33 80 0 81 49 134 123 135 21 0 51
-7 67 -15z m1867 -141 c95 -70 105 -194 24 -275 -82 -82 -204 -72 -274 23 -59
79 -25 216 65 262 46 23 148 18 185 -10z m-4087 -893 c14 -10 33 -34 43 -54
23 -46 16 -86 -24 -132 -50 -57 -124 -58 -179 -4 -106 107 36 275 160 190z
m5870 -186 c32 -17 60 -61 60 -95 0 -29 -26 -76 -52 -94 -56 -39 -149 -5 -169
62 -28 95 71 174 161 127z m-7227 -289 c118 -50 145 -217 49 -298 -93 -78
-229 -52 -281 54 -26 54 -26 100 -2 153 41 89 145 129 234 91z m8225 -567
c168 -82 110 -339 -78 -339 -191 0 -249 262 -76 341 54 24 100 24 154 -2z
m-1911 -170 c103 -39 146 -166 89 -263 -90 -154 -330 -86 -330 94 1 124 127
212 241 169z m-5331 -1028 c123 -56 81 -241 -55 -241 -144 0 -179 187 -46 246
40 18 53 17 101 -5z m-1579 -432 c34 -13 80 -55 99 -91 8 -15 14 -50 14 -78 0
-137 -133 -219 -258 -159 -131 64 -131 253 0 318 47 23 101 27 145 10z m2508
-372 c102 -58 123 -193 43 -276 -58 -60 -125 -75 -196 -46 -76 32 -112 86
-112 166 0 138 145 224 265 156z m-1718 -613 c85 -64 57 -204 -48 -235 -133
-40 -231 126 -132 225 50 50 121 54 180 10z"/>
<path d="M30250 27675 c-86 -25 -145 -70 -183 -140 l-22 -40 0 -1760 0 -1760
22 -41 c54 -101 153 -149 303 -148 82 0 104 4 156 28 73 33 115 73 146 141 23
50 23 51 29 640 5 563 7 594 27 673 97 372 363 571 767 575 129 1 196 -13 286
-58 103 -53 196 -171 242 -305 21 -64 21 -79 27 -770 l5 -705 23 -50 c58 -126
181 -186 347 -171 125 12 215 68 262 164 l28 57 0 685 c0 721 -2 764 -47 935
-79 301 -283 549 -540 657 -123 52 -249 79 -398 85 -414 17 -723 -105 -977
-389 l-52 -58 -3 772 -3 773 -23 50 c-31 67 -73 108 -143 140 -75 33 -198 42
-279 20z"/>
<path d="M20227 26359 c-82 -19 -146 -68 -185 -143 l-27 -51 -3 -1064 c-3
-1168 -5 -1123 57 -1208 21 -29 51 -51 97 -74 64 -32 75 -34 169 -33 79 0 112
5 155 22 63 25 121 77 153 136 22 41 22 48 28 706 7 708 7 708 58 855 75 212
239 337 445 338 183 2 285 -101 339 -338 19 -84 20 -136 26 -810 6 -719 6
-720 28 -761 62 -115 217 -175 377 -145 112 21 188 76 228 165 l23 51 3 754 3
753 45 71 c98 151 216 236 359 258 215 34 364 -92 404 -342 7 -40 11 -325 11
-756 0 -460 4 -709 11 -743 17 -80 64 -139 143 -180 63 -32 74 -34 164 -34 53
-1 116 5 139 12 68 20 133 72 167 132 l31 55 0 775 c0 769 0 776 -23 878 -51
230 -126 378 -261 513 -71 71 -102 94 -181 133 -134 66 -253 90 -420 83 -147
-6 -242 -28 -366 -86 -116 -55 -200 -116 -320 -233 l-101 -99 -43 73 c-89 150
-226 262 -386 314 -81 26 -101 29 -224 29 -121 -1 -143 -4 -215 -29 -161 -55
-313 -173 -412 -318 l-48 -70 -5 109 c-5 97 -9 114 -36 163 -35 63 -99 112
-177 135 -55 16 -169 18 -230 4z"/>
<path d="M24335 26360 c-96 -23 -170 -82 -206 -163 l-24 -52 0 -680 c0 -724 2
-757 50 -943 76 -288 258 -510 520 -633 283 -133 707 -142 995 -22 157 65 274
151 421 310 l46 49 6 -111 c6 -130 27 -192 85 -248 77 -75 216 -105 342 -73
125 31 191 104 210 231 7 47 10 407 8 1095 -3 936 -4 1029 -20 1067 -52 130
-166 190 -338 181 -140 -8 -234 -65 -281 -171 l-24 -52 -6 -595 c-5 -515 -8
-604 -23 -660 -83 -320 -267 -507 -556 -566 -112 -22 -319 -15 -400 14 -177
63 -285 176 -346 362 -17 50 -19 116 -24 750 -6 786 -3 751 -87 835 -33 34
-60 49 -110 65 -67 20 -178 25 -238 10z"/>
<path d="M28175 26363 c-96 -8 -246 -37 -329 -64 -357 -117 -540 -363 -505
-679 27 -246 173 -414 492 -568 142 -69 253 -111 546 -209 392 -130 507 -188
551 -274 63 -123 -27 -210 -266 -255 -124 -23 -385 -15 -498 15 -142 38 -277
121 -437 267 -91 83 -134 106 -211 112 -155 12 -308 -119 -308 -263 0 -154
229 -388 504 -515 415 -192 1129 -198 1501 -12 199 99 334 249 380 422 22 81
19 240 -5 334 -51 200 -175 333 -425 459 -131 66 -213 97 -575 216 -438 145
-528 188 -572 274 -30 61 -20 112 31 158 22 19 58 41 81 48 80 24 215 33 333
22 221 -21 372 -79 516 -200 107 -90 167 -114 271 -109 171 7 307 137 285 272
-41 257 -454 496 -944 546 -95 9 -321 11 -416 3z"/>
<path d="M34154 26354 c-231 -28 -422 -82 -609 -174 -200 -98 -280 -178 -292
-292 -7 -74 23 -144 89 -203 61 -55 103 -69 185 -62 54 4 90 17 221 80 251
121 405 158 662 160 169 1 247 -12 347 -58 120 -55 195 -140 233 -263 19 -63
37 -276 24 -285 -5 -3 -37 12 -72 33 -135 82 -340 137 -550 148 -479 26 -849
-82 -1077 -313 -80 -81 -126 -154 -161 -253 -86 -248 -35 -535 130 -734 140
-168 360 -286 630 -335 126 -23 407 -23 536 0 212 39 389 121 517 240 l73 69
0 -49 c0 -65 22 -135 55 -179 53 -69 184 -111 313 -100 125 10 213 61 260 149
l27 52 3 695 c4 879 -2 943 -104 1140 -157 304 -484 493 -934 540 -130 13
-372 11 -506 -6z m335 -1364 c206 -22 348 -76 442 -169 114 -115 120 -271 14
-389 -111 -123 -304 -182 -597 -183 -295 0 -468 73 -545 230 -24 49 -28 68
-28 146 0 74 4 98 23 137 88 178 345 263 691 228z"/>
<path d="M36346 26354 c-96 -30 -155 -87 -187 -179 -12 -34 -14 -318 -14
-1835 0 -1737 1 -1797 19 -1844 22 -58 76 -120 125 -146 94 -47 251 -50 346
-6 72 33 110 69 142 134 l28 57 3 818 c1 449 5 817 9 817 3 0 34 -27 68 -59
272 -254 629 -363 1055 -322 224 22 407 75 568 163 309 171 502 453 579 843
24 127 24 444 0 570 -56 283 -164 493 -341 663 -228 219 -509 326 -891 339
-388 13 -671 -82 -956 -323 l-86 -72 -6 88 c-9 147 -63 233 -176 283 -62 27
-215 33 -285 11z m1408 -514 c363 -35 601 -232 666 -552 24 -113 26 -294 6
-400 -55 -284 -232 -474 -512 -549 -100 -27 -336 -37 -456 -19 -103 15 -230
57 -305 101 -87 51 -212 180 -255 264 -69 135 -83 198 -83 390 0 190 11 248
69 367 113 228 336 369 630 397 115 12 129 12 240 1z"/>
<path d="M39738 26356 c-102 -27 -176 -107 -198 -210 -7 -35 -9 -606 -8 -1836
l3 -1785 21 -45 c28 -60 77 -108 144 -139 46 -21 70 -25 150 -25 52 -1 113 5
136 12 92 27 169 102 194 188 7 27 13 296 18 848 l7 808 75 -67 c136 -122 269
-202 428 -255 282 -94 672 -90 975 11 430 143 711 477 793 944 24 138 24 413
0 550 -86 478 -378 817 -818 949 -275 83 -617 87 -883 11 -173 -49 -430 -199
-539 -314 -17 -17 -33 -31 -38 -31 -4 0 -8 37 -8 83 0 111 -20 168 -80 228
-37 37 -62 52 -115 68 -77 24 -184 27 -257 7z m1534 -536 c272 -58 457 -233
530 -499 32 -115 32 -372 0 -491 -68 -251 -242 -422 -498 -491 -111 -30 -353
-37 -482 -15 -361 63 -585 298 -621 653 -39 379 129 681 448 805 170 67 418
82 623 38z"/>
<path d="M13324 24655 c3 -11 12 -47 20 -80 44 -177 57 -292 156 -1425 29
-336 67 -848 87 -1170 25 -414 25 -1306 0 -1550 -35 -343 -86 -615 -142 -753
l-24 -59 32 6 c17 3 61 8 97 11 36 4 70 8 76 10 8 2 5 29 -8 87 -25 108 -35
394 -19 545 6 61 27 209 47 329 103 641 113 759 124 1369 9 501 17 618 65 902
70 413 191 818 336 1122 33 68 57 126 55 128 -2 2 -77 32 -167 67 -313 121
-405 167 -529 262 -55 42 -160 148 -193 194 -14 21 -17 21 -13 5z"/>
</g>
</svg>
